<svg width="17" height="17" viewBox="0 0 17 17" fill="none" xmlns="http://www.w3.org/2000/svg">
<g clip-path="url(#clip0_26_791)">
<path d="M12.1399 14.8252C13.2521 14.8252 14.1538 13.9235 14.1538 12.8113C14.1538 11.699 13.2521 10.7974 12.1399 10.7974C11.0276 10.7974 10.126 11.699 10.126 12.8113C10.126 13.9235 11.0276 14.8252 12.1399 14.8252Z" stroke="#E81110" stroke-linecap="round" stroke-linejoin="round"/>
<path d="M4.0842 10.1261C5.19644 10.1261 6.09809 9.22443 6.09809 8.11219C6.09809 6.99995 5.19644 6.0983 4.0842 6.0983C2.97196 6.0983 2.07031 6.99995 2.07031 8.11219C2.07031 9.22443 2.97196 10.1261 4.0842 10.1261Z" stroke="#E81110" stroke-linecap="round" stroke-linejoin="round"/>
<path d="M5.82324 9.12585L10.4082 11.7976" stroke="#E81110" stroke-linecap="round" stroke-linejoin="round"/>
<path d="M12.1399 5.42701C13.2521 5.42701 14.1538 4.52536 14.1538 3.41312C14.1538 2.30088 13.2521 1.39923 12.1399 1.39923C11.0276 1.39923 10.126 2.30088 10.126 3.41312C10.126 4.52536 11.0276 5.42701 12.1399 5.42701Z" stroke="#E81110" stroke-linecap="round" stroke-linejoin="round"/>
<path d="M10.4015 4.42679L5.82324 7.09855" stroke="#E81110" stroke-linecap="round" stroke-linejoin="round"/>
</g>
<defs>
<clipPath id="clip0_26_791">
<rect width="16.1111" height="16.1111" fill="white" transform="translate(0.0566406 0.0566406)"/>
</clipPath>
</defs>
</svg>
